<svg width="48" height="32" viewBox="0 0 48 32" fill="none" xmlns="http://www.w3.org/2000/svg">
    <path d="M44.786.86H2.808A2.697 2.697 0 0 0 .111 3.555v25.117a2.697 2.697 0 0 0 2.697 2.697h41.978a2.697 2.697 0 0 0 2.697-2.697V3.556A2.697 2.697 0 0 0 44.786.86z" fill="#737373"/>
    <path d="M7.026 14.882H5.79l-.491-1.043H3.05l-.464 1.043H1.381l2.191-4.592h1.201l2.253 4.592zm-2.091-1.817-.776-1.704-.76 1.704h1.536zm2.682 1.817V10.29h1.7l1.02 3.132 1.01-3.133h1.703v4.593h-1.055v-3.615l-1.117 3.615H9.785l-1.113-3.615v3.615H7.617zm6.569 0V10.29h4.172v.776h-3.036v1.018h2.825v.774h-2.825v1.25h3.143v.774h-4.28zm5.254 0V10.29h2.39c.601 0 1.039.04 1.31.123.273.082.492.23.656.44.163.211.245.453.245.724 0 .344-.124.63-.373.854-.248.224-.619.365-1.112.424.245.117.448.246.608.386.16.14.375.388.647.745l.686.896H23.14l-.821-1c-.292-.357-.491-.582-.599-.674a.899.899 0 0 0-.342-.191c-.12-.035-.31-.052-.571-.052h-.23v1.917H19.44zm1.136-2.65h.84c.545 0 .885-.019 1.02-.057a.617.617 0 0 0 .32-.194.518.518 0 0 0 .114-.345.49.49 0 0 0-.15-.374.758.758 0 0 0-.429-.18c-.092-.01-.369-.016-.83-.016h-.886l.001 1.166zm4.505 2.65V10.29h1.136v4.592H25.08zm5.814-1.688 1.1.285c-.168.5-.449.873-.842 1.117-.392.243-.89.364-1.494.364-.747 0-1.36-.208-1.841-.625-.482-.416-.722-.986-.722-1.709 0-.764.241-1.357.725-1.78.483-.423 1.12-.635 1.907-.635.689 0 1.247.166 1.676.498.257.197.448.478.576.847l-1.124.218a.963.963 0 0 0-.416-.564 1.378 1.378 0 0 0-.77-.206c-.417 0-.754.122-1.015.366-.26.245-.39.64-.39 1.188 0 .58.129.994.384 1.24.257.247.59.37.998.37.302 0 .562-.079.78-.235.217-.156.373-.403.468-.74zm7.152 1.688h-1.236l-.49-1.043h-2.248l-.465 1.043h-1.206l2.191-4.592h1.201l2.253 4.592zm-2.09-1.817-.776-1.704-.76 1.704h1.535zm2.708 1.817V10.29h1.105l2.303 3.067V10.29h1.055v4.592h-1.14l-2.267-2.995v2.995h-1.056z" fill="#A8A8A8" stroke="#fff" stroke-width="2.455" stroke-linecap="round" stroke-linejoin="round"/>
    <path d="M7.026 14.882H5.79l-.491-1.043H3.05l-.464 1.043H1.381l2.191-4.592h1.201l2.253 4.592zm-2.091-1.817-.776-1.704-.76 1.704h1.536zm2.682 1.817V10.29h1.7l1.02 3.132 1.01-3.133h1.703v4.593h-1.055v-3.615l-1.117 3.615H9.785l-1.113-3.615v3.615H7.617zm6.569 0V10.29h4.172v.776h-3.036v1.018h2.825v.774h-2.825v1.25h3.143v.774h-4.28zm5.254 0V10.29h2.39c.601 0 1.039.04 1.31.123.273.082.492.23.656.44.163.211.245.453.245.724 0 .344-.124.63-.373.854-.248.224-.619.365-1.112.424.245.117.448.246.608.386.16.14.375.388.647.745l.686.896H23.14l-.821-1c-.292-.357-.491-.582-.599-.674a.899.899 0 0 0-.342-.191c-.12-.035-.31-.052-.571-.052h-.23v1.917H19.44zm1.136-2.65h.84c.545 0 .885-.019 1.02-.057a.617.617 0 0 0 .32-.194.518.518 0 0 0 .114-.345.49.49 0 0 0-.15-.374.758.758 0 0 0-.429-.18c-.092-.01-.369-.016-.83-.016h-.886l.001 1.166zm4.505 2.65V10.29h1.136v4.592H25.08zm5.814-1.688 1.1.285c-.168.5-.449.873-.842 1.117-.392.243-.89.364-1.494.364-.747 0-1.36-.208-1.841-.625-.482-.416-.722-.986-.722-1.709 0-.764.241-1.357.725-1.78.483-.423 1.12-.635 1.907-.635.689 0 1.247.166 1.676.498.257.197.448.478.576.847l-1.124.218a.963.963 0 0 0-.416-.564 1.378 1.378 0 0 0-.77-.206c-.417 0-.754.122-1.015.366-.26.245-.39.64-.39 1.188 0 .58.129.994.384 1.24.257.247.59.37.998.37.302 0 .562-.079.78-.235.217-.156.373-.403.468-.74zm7.152 1.688h-1.236l-.49-1.043h-2.248l-.465 1.043h-1.206l2.191-4.592h1.201l2.253 4.592zm-2.09-1.817-.776-1.704-.76 1.704h1.535zm2.708 1.817V10.29h1.105l2.303 3.067V10.29h1.055v4.592h-1.14l-2.267-2.995v2.995h-1.056z" fill="#737373"/>
    <path d="M10.326 21.878v-4.592h4.172v.777h-3.036v1.018h2.825v.774h-2.825v1.25h3.144v.773h-4.28zm4.678 0 1.923-2.397-1.742-2.195h1.327l1.128 1.476 1.106-1.476h1.316l-1.75 2.23 1.923 2.362h-1.37l-1.248-1.588-1.25 1.588h-1.363zm5.822 0v-4.592h1.822c.691 0 1.142.023 1.351.069.322.069.593.218.81.45.217.23.326.528.326.893 0 .282-.062.52-.188.712-.112.18-.276.335-.477.453-.194.11-.39.182-.59.217-.271.044-.664.066-1.178.066h-.74v1.733h-1.136zm1.136-3.815v1.303h.622c.448 0 .746-.024.897-.072a.744.744 0 0 0 .355-.226.54.54 0 0 0 .129-.357.532.532 0 0 0-.18-.413.848.848 0 0 0-.457-.204c-.136-.021-.409-.031-.817-.031h-.55zm4.117 3.815v-4.592h2.39c.602 0 1.04.04 1.311.123.273.083.491.23.655.44.163.211.245.453.245.724a1.1 1.1 0 0 1-.372.854c-.248.224-.619.366-1.113.424.246.117.448.246.608.386.16.14.376.388.647.745l.687.896H29.78l-.822-1c-.291-.356-.491-.581-.598-.674a.899.899 0 0 0-.342-.191c-.12-.035-.311-.052-.572-.052h-.23v1.917h-1.136zm1.137-2.65h.84c.544 0 .885-.019 1.02-.057a.616.616 0 0 0 .319-.193.518.518 0 0 0 .115-.346.488.488 0 0 0-.152-.373.759.759 0 0 0-.428-.18c-.091-.011-.368-.016-.83-.016h-.885v1.165zm4.539 2.65v-4.592h4.17v.777H32.89v1.018h2.824v.774H32.89v1.25h3.144v.773h-4.28zm4.961-1.494 1.106-.088c.066.303.201.525.405.668.203.142.477.213.822.213.366 0 .642-.064.827-.19.186-.126.279-.274.279-.443a.372.372 0 0 0-.117-.278c-.078-.076-.215-.142-.409-.198-.3-.075-.604-.142-.91-.2-.608-.124-1.036-.276-1.281-.455-.345-.253-.519-.56-.519-.924 0-.235.082-.453.244-.657.163-.203.397-.359.703-.465.305-.107.674-.16 1.107-.16.706 0 1.238.127 1.594.38.357.252.544.59.563 1.012l-1.137.04c-.048-.236-.152-.406-.313-.51-.159-.103-.4-.154-.718-.154-.33 0-.59.055-.776.166a.368.368 0 0 0-.135.124.286.286 0 0 0-.045.16c0 .11.056.203.168.28.144.098.492.2 1.045.307.552.107.96.217 1.225.33.266.114.473.27.622.468.15.196.224.44.224.731 0 .268-.098.53-.28.753a1.633 1.633 0 0 1-.748.498c-.328.112-.736.167-1.224.167-.711 0-1.258-.133-1.638-.402-.382-.268-.609-.66-.684-1.173zm5.25 0 1.105-.088c.066.303.202.525.405.668.204.142.477.213.823.213.365 0 .642-.064.827-.19.185-.126.278-.274.278-.443a.372.372 0 0 0-.116-.278c-.079-.076-.216-.142-.41-.198a15.608 15.608 0 0 0-.909-.2c-.608-.124-1.037-.276-1.282-.455-.345-.253-.517-.56-.517-.924 0-.235.08-.453.243-.657.163-.203.397-.359.702-.465.306-.107.675-.16 1.107-.16.707 0 1.238.127 1.595.38.357.252.544.59.562 1.012l-1.137.04c-.048-.236-.151-.406-.311-.51-.16-.103-.4-.154-.72-.154-.33 0-.59.055-.775.166a.37.37 0 0 0-.135.123.285.285 0 0 0-.046.162c0 .108.057.202.17.279.143.098.49.2 1.043.307.553.107.962.217 1.226.33.265.114.472.27.622.468.15.196.224.44.224.731 0 .268-.098.53-.28.753a1.633 1.633 0 0 1-.748.498c-.328.112-.736.167-1.224.167-.712 0-1.258-.133-1.64-.402-.38-.268-.608-.66-.682-1.173z" fill="#A8A8A8" stroke="#fff" stroke-width="2.455" stroke-linecap="round" stroke-linejoin="round"/>
    <path d="M10.326 21.878v-4.592h4.172v.777h-3.036v1.018h2.825v.774h-2.825v1.25h3.144v.773h-4.28zm4.678 0 1.923-2.397-1.742-2.195h1.327l1.128 1.476 1.106-1.476h1.316l-1.75 2.23 1.923 2.362h-1.37l-1.248-1.588-1.25 1.588h-1.363zm5.822 0v-4.592h1.822c.691 0 1.142.023 1.351.069.322.069.593.218.81.45.217.23.326.528.326.893 0 .282-.062.52-.188.712-.112.18-.276.335-.477.453-.194.11-.39.182-.59.217-.271.044-.664.066-1.178.066h-.74v1.733h-1.136zm1.136-3.815v1.303h.622c.448 0 .746-.024.897-.072a.744.744 0 0 0 .355-.226.54.54 0 0 0 .129-.357.532.532 0 0 0-.18-.413.848.848 0 0 0-.457-.204c-.136-.021-.409-.031-.817-.031h-.55zm4.117 3.815v-4.592h2.39c.602 0 1.04.04 1.311.123.273.083.491.23.655.44.163.211.245.453.245.724a1.1 1.1 0 0 1-.372.854c-.248.224-.619.366-1.113.424.246.117.448.246.608.386.16.14.376.388.647.745l.687.896H29.78l-.822-1c-.291-.356-.491-.581-.598-.674a.899.899 0 0 0-.342-.191c-.12-.035-.311-.052-.572-.052h-.23v1.917h-1.136zm1.137-2.65h.84c.544 0 .885-.019 1.02-.057a.616.616 0 0 0 .319-.193.518.518 0 0 0 .115-.346.488.488 0 0 0-.152-.373.759.759 0 0 0-.428-.18c-.091-.011-.368-.016-.83-.016h-.885v1.165zm4.539 2.65v-4.592h4.17v.777H32.89v1.018h2.824v.774H32.89v1.25h3.144v.773h-4.28zm4.961-1.494 1.106-.088c.066.303.201.525.405.668.203.142.477.213.822.213.366 0 .642-.064.827-.19.186-.126.279-.274.279-.443a.372.372 0 0 0-.117-.278c-.078-.076-.215-.142-.409-.198-.3-.075-.604-.142-.91-.2-.608-.124-1.036-.276-1.281-.455-.345-.253-.519-.56-.519-.924 0-.235.082-.453.244-.657.163-.203.397-.359.703-.465.305-.107.674-.16 1.107-.16.706 0 1.238.127 1.594.38.357.252.544.59.563 1.012l-1.137.04c-.048-.236-.152-.406-.313-.51-.159-.103-.4-.154-.718-.154-.33 0-.59.055-.776.166a.368.368 0 0 0-.135.124.286.286 0 0 0-.045.16c0 .11.056.203.168.28.144.098.492.2 1.045.307.552.107.96.217 1.225.33.266.114.473.27.622.468.15.196.224.44.224.731 0 .268-.098.53-.28.753a1.633 1.633 0 0 1-.748.498c-.328.112-.736.167-1.224.167-.711 0-1.258-.133-1.638-.402-.382-.268-.609-.66-.684-1.173zm5.25 0 1.105-.088c.066.303.202.525.405.668.204.142.477.213.823.213.365 0 .642-.064.827-.19.185-.126.278-.274.278-.443a.372.372 0 0 0-.116-.278c-.079-.076-.216-.142-.41-.198a15.608 15.608 0 0 0-.909-.2c-.608-.124-1.037-.276-1.282-.455-.345-.253-.517-.56-.517-.924 0-.235.08-.453.243-.657.163-.203.397-.359.702-.465.306-.107.675-.16 1.107-.16.707 0 1.238.127 1.595.38.357.252.544.59.562 1.012l-1.137.04c-.048-.236-.151-.406-.311-.51-.16-.103-.4-.154-.72-.154-.33 0-.59.055-.775.166a.37.37 0 0 0-.135.123.285.285 0 0 0-.046.162c0 .108.057.202.17.279.143.098.49.2 1.043.307.553.107.962.217 1.226.33.265.114.472.27.622.468.15.196.224.44.224.731 0 .268-.098.53-.28.753a1.633 1.633 0 0 1-.748.498c-.328.112-.736.167-1.224.167-.712 0-1.258-.133-1.64-.402-.38-.268-.608-.66-.682-1.173z" fill="#737373"/>
</svg>
