<svg width="116" height="20" viewBox="0 0 116 20" fill="none" xmlns="http://www.w3.org/2000/svg">
    <path fill-rule="evenodd" clip-rule="evenodd" d="M107.626.793c4.238 0 6.569 1.886 6.569 5.449a5.097 5.097 0 0 1-4.238 5.448l5.721 7.754h-4.45l-4.874-7.544h-.423v7.544h-3.603V.793h5.298zm-1.696 8.582h1.059c2.331 0 3.391-1.048 3.391-2.934 0-1.676-1.06-2.724-3.391-2.724h-1.059v5.658zM89.824 19.448h10.172v-3.143h-6.57v-5.03h6.358V8.132h-6.357V3.94h6.569V.797H89.824v18.651zM79.23 13.371 74.355.797h-3.814l7.84 19.07h1.908l7.84-19.07h-3.814L79.229 13.37zm-43.016-3.155c0 5.239 4.238 9.64 9.536 9.64 1.695 0 3.178-.42 4.662-1.048v-4.191c-1.06 1.257-2.543 2.095-4.239 2.095-3.39 0-6.145-2.514-6.145-5.867v-.42c-.212-3.353 2.543-6.287 5.934-6.496 1.695 0 3.39.838 4.45 2.096V1.833C49.139.995 47.444.785 45.96.785c-5.51-.419-9.748 3.982-9.748 9.43zm-6.57-2.3c-2.12-.837-2.756-1.256-2.756-2.304.212-1.258 1.272-2.305 2.543-2.096 1.06 0 2.12.629 2.967 1.467l1.907-2.515C32.821 1.211 30.914.373 29.007.373c-2.967-.21-5.51 2.095-5.722 5.03v.209c0 2.514 1.06 3.981 4.45 5.03.848.209 1.695.628 2.543 1.047.636.42 1.06 1.048 1.06 1.886 0 1.467-1.272 2.724-2.543 2.724h-.212c-1.695 0-3.179-1.047-3.814-2.514l-2.331 2.305c1.27 2.305 3.814 3.562 6.357 3.562 3.39.21 6.145-2.305 6.357-5.658v-.628c-.212-2.515-1.272-3.773-5.51-5.45zm-12.29 11.532h3.603V.797h-3.602v18.651zM.611.793H6.97c5.085.21 9.111 4.4 8.9 9.43 0 2.725-1.272 5.24-3.39 7.126-1.908 1.466-4.239 2.305-6.57 2.095H.611V.793zm4.661 15.508c1.696.21 3.603-.42 4.874-1.467 1.272-1.258 1.907-2.934 1.907-4.82a6.464 6.464 0 0 0-1.907-4.61C8.875 4.356 6.968 3.727 5.272 3.937h-1.06V16.3h1.06zM61.217.36c-5.298 0-9.748 4.19-9.748 9.64 0 5.238 4.238 9.64 9.748 9.849 5.509.21 9.747-4.191 9.96-9.64-.213-5.449-4.451-9.85-9.96-9.85z" fill="#737373"/>
</svg>
