<svg width="92" height="28" viewBox="0 0 92 28" fill="none" xmlns="http://www.w3.org/2000/svg">
    <g clip-path="url(#2idetfxnfa)">
        <path d="m83.203 27.007-3.754-4.209-3.72 4.21h-7.828l7.65-8.596-7.65-8.598h8.073l3.79 4.177 3.649-4.177h7.79l-7.613 8.562 7.719 8.631h-8.106zm-30.334 0V-.078h15.032v6.037h-8.665v3.855h8.665v5.81h-8.665v5.33h8.665v6.053H52.869z" fill="#605E5E"/>
        <path d="M46.525-.072v11.085h-.07c-1.404-1.614-3.16-2.176-5.194-2.176-4.169 0-7.31 2.836-8.412 6.583-1.258-4.13-4.5-6.66-9.308-6.66-3.905 0-6.988 1.752-8.598 4.608v-3.55H6.872V5.967h8.808V-.071H-.322v27.084h7.194V15.63h7.17c-.22.875-.33 1.775-.328 2.678 0 5.647 4.316 9.616 9.825 9.616 4.632 0 7.687-2.177 9.3-6.139h-6.165c-.833 1.192-1.467 1.544-3.134 1.544-1.932 0-3.6-1.686-3.6-3.684h12.554C33.04 24.131 36.534 28 41.332 28a6.143 6.143 0 0 0 5.122-2.737h.07v1.755h6.343V-.07h-6.342v-.001zM20.14 15.71c.4-1.721 1.735-2.846 3.4-2.846 1.834 0 3.1 1.09 3.433 2.846H20.14zm22.535 7.181c-2.337 0-3.79-2.177-3.79-4.452 0-2.431 1.264-4.767 3.79-4.767 2.621 0 3.666 2.337 3.666 4.767 0 2.304-1.106 4.453-3.666 4.453z" fill="#737373"/>
    </g>
    <defs>
        <clipPath id="2idetfxnfa">
            <path fill="#fff" transform="translate(.229 .31)" d="M0 0h90.919v27.487H0z"/>
        </clipPath>
    </defs>
</svg>
