<svg width="40" height="162" viewBox="0 0 40 162" fill="none" xmlns="http://www.w3.org/2000/svg">
    <path d="M29.957.47c5.523 0 10 4.477 10 10v140.802c0 5.523-4.477 10-10 10H-2.13V.47h32.088z" fill="#E92E00"/>
    <path d="M18.436 126.684v-2.518h4.83a7.194 7.194 0 0 1 1.123 2.245c.26.851.391 1.707.391 2.569 0 1.236-.26 2.347-.782 3.334a6.033 6.033 0 0 1-2.195 2.33c-.94.556-2.001.834-3.18.834-1.18 0-2.234-.278-3.164-.834a5.84 5.84 0 0 1-2.194-2.347c-.534-.998-.8-2.121-.8-3.368 0-1.043.176-1.99.527-2.841a5.628 5.628 0 0 1 1.531-2.143l1.633 1.769c-.896.85-1.344 1.877-1.344 3.079 0 .76.16 1.434.477 2.024.317.59.765 1.049 1.344 1.378.578.329 1.241.493 1.99.493.737 0 1.394-.164 1.973-.493a3.568 3.568 0 0 0 1.36-1.361c.318-.59.477-1.259.477-2.007 0-.794-.17-1.508-.51-2.143h-3.487zm3.929-15.148h2.211v9.22H12.67v-8.998h2.211v6.259h2.586v-5.528h2.143v5.528h2.756v-6.481zm-7.45-5.509v3.81h-2.246V99.461h2.245v3.81h9.662v2.756h-9.662zm10.937-27.444c.476.386.84.857 1.089 1.412.249.545.374 1.146.374 1.803 0 .885-.193 1.684-.579 2.399-.374.714-1.043 1.53-2.007 2.45-.136 1.077-.482 2.04-1.037 2.891a5.959 5.959 0 0 1-2.144 1.973c-.884.465-1.86.698-2.925.698-1.168 0-2.217-.278-3.147-.834a5.99 5.99 0 0 1-2.212-2.33c-.532-.998-.799-2.115-.799-3.351 0-1.236.267-2.348.8-3.334a5.991 5.991 0 0 1 2.21-2.33c.93-.568 1.98-.851 3.148-.851 1.383 0 2.596.391 3.64 1.174 1.043.77 1.769 1.797 2.177 3.078.295-.283.505-.555.63-.816.136-.272.204-.561.204-.868 0-.737-.295-1.383-.885-1.939l1.463-1.225zm-7.23 10.836c.738 0 1.395-.159 1.974-.476a3.6 3.6 0 0 0 1.36-1.344 3.832 3.832 0 0 0 .477-1.905c0-.703-.159-1.338-.476-1.905a3.478 3.478 0 0 0-1.361-1.327c-.579-.33-1.236-.493-1.973-.493-.737 0-1.395.164-1.974.493a3.363 3.363 0 0 0-1.343 1.327 3.728 3.728 0 0 0-.494 1.905c0 .703.165 1.338.494 1.905a3.478 3.478 0 0 0 1.344 1.344c.578.317 1.236.476 1.973.476zm6.158-18.452c0 1.701-.47 3.028-1.412 3.98-.94.942-2.285 1.412-4.03 1.412h-6.669v-2.755h6.566c2.132 0 3.198-.885 3.198-2.654 0-.862-.255-1.52-.765-1.973-.522-.454-1.333-.68-2.433-.68h-6.566v-2.722h6.668c1.746 0 3.09.476 4.032 1.429.94.941 1.411 2.262 1.411 3.963zm0-14.732c0 1.236-.266 2.353-.8 3.351a6.03 6.03 0 0 1-2.194 2.33c-.94.556-1.995.834-3.163.834-1.168 0-2.217-.278-3.147-.834a5.99 5.99 0 0 1-2.212-2.33c-.532-.998-.799-2.115-.799-3.35 0-1.237.267-2.348.8-3.335a5.99 5.99 0 0 1 2.21-2.33c.93-.567 1.98-.85 3.148-.85 1.168 0 2.222.283 3.163.85a6.03 6.03 0 0 1 2.195 2.33c.533.987.8 2.098.8 3.334zm-2.347 0c0-.703-.159-1.338-.476-1.905a3.478 3.478 0 0 0-1.361-1.327c-.579-.329-1.236-.493-1.973-.493-.737 0-1.395.164-1.974.493a3.363 3.363 0 0 0-1.343 1.327 3.728 3.728 0 0 0-.494 1.905c0 .703.165 1.338.494 1.905a3.479 3.479 0 0 0 1.344 1.344c.578.318 1.236.476 1.973.476.737 0 1.394-.158 1.973-.476a3.6 3.6 0 0 0 1.36-1.344 3.832 3.832 0 0 0 .477-1.905zM14.915 44.5v3.81h-2.246V37.933h2.245v3.81h9.662v2.755h-9.662zm7.45-18.119h2.211v9.22H12.67V26.6h2.211v6.26h2.586v-5.528h2.143v5.528h2.756v-6.48z" fill="#fff"/>
</svg>
