<svg width="16" height="16" viewBox="0 0 16 16" fill="none" xmlns="http://www.w3.org/2000/svg">
    <mask id="o55x6xg9za" style="mask-type:luminance" maskUnits="userSpaceOnUse" x="0" y="0" width="16" height="16">
        <path fill-rule="evenodd" clip-rule="evenodd" d="M.087.843h15.141v15.14H.087V.844z" fill="#fff"/>
    </mask>
    <g mask="url(#o55x6xg9za)">
        <path fill-rule="evenodd" clip-rule="evenodd" d="M12.465 12.756a4.931 4.931 0 0 0-3.371-3.683 2.7 2.7 0 0 0 1.27-2.285 2.71 2.71 0 0 0-2.707-2.706 2.71 2.71 0 0 0-2.706 2.706c0 .964.51 1.806 1.271 2.285a4.93 4.93 0 0 0-3.372 3.683 6.454 6.454 0 0 1-1.682-4.343c0-3.578 2.911-6.489 6.49-6.489 3.578 0 6.488 2.911 6.488 6.49 0 1.67-.64 3.191-1.681 4.342M7.657 8.413a1.627 1.627 0 0 1-1.625-1.625c0-.896.73-1.625 1.625-1.625.897 0 1.625.73 1.625 1.625 0 .896-.728 1.625-1.625 1.625m-3.826 5.23A3.835 3.835 0 0 1 7.657 9.94c2.07 0 3.758 1.65 3.827 3.703a6.451 6.451 0 0 1-3.827 1.26 6.45 6.45 0 0 1-3.826-1.26M7.657.843c-4.174 0-7.57 3.396-7.57 7.57 0 4.175 3.396 7.571 7.57 7.571 4.175 0 7.571-3.396 7.571-7.57 0-4.175-3.396-7.571-7.57-7.571" fill="#737373"/>
    </g>
</svg>
