<svg width="50" height="31" viewBox="0 0 50 31" fill="none" xmlns="http://www.w3.org/2000/svg">
    <g clip-path="url(#031hat04qa)" fill-rule="evenodd" clip-rule="evenodd">
        <path d="M25.354 26.278a14.52 14.52 0 0 0 9.855 3.835 14.797 14.797 0 0 0 0-29.591 14.52 14.52 0 0 0-9.855 3.835 14.806 14.806 0 0 0 0 21.92z" fill="#737373"/>
        <path d="M47.96 23.56a.454.454 0 0 1 .457-.458.46.46 0 0 1 .482.457.468.468 0 0 1-.482.483.462.462 0 0 1-.458-.483zm.457.38a.39.39 0 0 0 .38-.38.369.369 0 0 0-.736 0 .388.388 0 0 0 .356.38zm-.051-.152h-.102v-.432h.178a.15.15 0 0 1 .101.026c.051.025.051.05.051.101 0 .051-.025.102-.076.102l.102.203h-.127l-.051-.179h-.076v-.076h.101c.026 0 .026-.026.026-.051 0-.025 0-.026-.026-.05h-.101v.356z" fill="#E9B040"/>
        <path d="M30.103 13.754c-.051-.533-.153-1.041-.254-1.575h-8.992c.108-.523.244-1.04.406-1.55h8.154a17.04 17.04 0 0 0-.61-1.575h-6.909c.255-.538.534-1.063.837-1.575h5.208a13.368 13.368 0 0 0-1.118-1.55h-2.97c.46-.56.96-1.087 1.498-1.574a14.755 14.755 0 1 0-9.88 25.756 14.585 14.585 0 0 0 9.88-3.835c.53-.479 1.022-.997 1.473-1.55h-2.972a17.503 17.503 0 0 1-1.117-1.575h5.207c.327-.502.616-1.029.864-1.575h-6.91a16.519 16.519 0 0 1-.635-1.55h8.154c.17-.517.315-1.042.431-1.574.112-.52.197-1.046.254-1.575a15.945 15.945 0 0 0 0-3.123z" fill="#737373"/>
        <path d="M47.96 18.758a.46.46 0 0 1 .457-.482.467.467 0 0 1 .482.482.471.471 0 1 1-.94 0zm.457.355a.356.356 0 1 0 0-.71.356.356 0 0 0 0 .71zm-.051-.152h-.102v-.406h.28c.05.025.05.076.05.127a.137.137 0 0 1-.076.102l.102.177h-.127l-.051-.152h-.076v-.076h.05c.026 0 .051 0 .051-.026.026 0 .026-.025.026-.051l-.002-.01a.023.023 0 0 0-.006-.008.023.023 0 0 0-.008-.005.023.023 0 0 0-.01-.002c0-.026-.025 0-.05 0h-.051v.33z" fill="#fff"/>
        <path d="M20.349 19.599a4.697 4.697 0 0 1-1.194.203c-.762 0-1.22-.483-1.22-1.345.006-.188.023-.375.052-.56l.101-.584.077-.483.685-4.165h1.525l-.18.914h.967l-.23 1.525h-.964l-.406 2.489a1.166 1.166 0 0 0-.026.254c0 .33.153.457.534.457.162-.003.323-.02.482-.05l-.203 1.345zm4.928-.05a5.975 5.975 0 0 1-1.626.227c-1.727 0-2.718-.914-2.718-2.717 0-2.108 1.169-3.633 2.794-3.633 1.296 0 2.134.864 2.134 2.21a7.004 7.004 0 0 1-.178 1.499h-3.176a.719.719 0 0 0-.026.203c0 .711.483 1.067 1.397 1.067a3.83 3.83 0 0 0 1.651-.38l-.252 1.523zm-.94-3.633v-.305a.704.704 0 0 0-.762-.788c-.508 0-.864.381-1.016 1.093h1.778zm-16.18 3.759H6.582l.914-5.766-2.057 5.766H4.347l-.127-5.74-.965 5.74h-1.55l1.245-7.493H5.26l.05 4.623 1.55-4.623h2.541l-1.245 7.493zm3.836-2.718c-.1-.019-.203-.028-.305-.025-.914 0-1.371.355-1.371.914a.575.575 0 0 0 .584.636c.762 0 1.066-.636 1.092-1.525zm1.27 2.718h-1.372l.025-.635c-.356.482-.837.736-1.676.736-.762 0-1.423-.685-1.423-1.676.003-.267.046-.532.127-.787.254-.94 1.194-1.524 2.642-1.55.18 0 .457 0 .711.026.037-.132.055-.27.05-.406 0-.407-.328-.534-1.066-.534a4.238 4.238 0 0 0-1.32.203l-.23.051-.101.025.229-1.371a5.962 5.962 0 0 1 1.853-.33c1.372 0 2.108.636 2.108 1.804.016.4-.01.8-.076 1.194l-.355 2.183-.05.381-.026.305-.026.204-.025.177h.001zm19.686-6.045c.5.017.988.156 1.422.406l.28-1.626a3.52 3.52 0 0 0-.407-.152l-.635-.18a3.121 3.121 0 0 0-.737-.076c-.787 0-1.244.026-1.727.305a4.77 4.77 0 0 0-.94.813l-.203-.05-1.626 1.142.077-.635h-1.677l-.99 6.096h1.6l.584-3.276s.23-.458.33-.61a.927.927 0 0 1 .89-.38h.127a8.196 8.196 0 0 0-.077 1.168c0 1.98 1.118 3.225 2.845 3.225a5.13 5.13 0 0 0 1.397-.203l.28-1.727c-.408.245-.87.384-1.345.406-.94 0-1.5-.71-1.5-1.828 0-1.651.838-2.82 2.034-2.82l-.002.002zm13.487-1.448-.355 2.134a1.645 1.645 0 0 0-1.449-.864 2.397 2.397 0 0 0-2.108 1.397v-.025l-1.017-.61.102-.635h-1.702l-.965 6.096h1.575l.533-3.276s.407-.458.509-.61a.992.992 0 0 1 .71-.381 5.494 5.494 0 0 0-.279 1.804c0 1.524.788 2.54 1.956 2.54a1.846 1.846 0 0 0 1.473-.685l-.076.61h1.498l1.22-7.494h-1.627l.002-.001zm-1.956 6.045c-.534 0-.813-.406-.813-1.194 0-1.194.508-2.057 1.244-2.057.559 0 .837.432.837 1.194 0 1.22-.508 2.057-1.27 2.057h.002zm-7.34-1.27c-.101-.019-.203-.028-.306-.025-.915 0-1.372.355-1.372.914a.575.575 0 0 0 .584.636c.763 0 1.068-.636 1.093-1.525zm1.27 2.718h-1.398l.05-.635c-.355.482-.836.736-1.675.736-.788 0-1.474-.66-1.474-1.676 0-1.447 1.092-2.336 2.82-2.336.228-.004.457.005.685.025a1.56 1.56 0 0 0 .077-.406c0-.407-.329-.534-1.092-.534-.448 0-.894.068-1.321.204l-.203.05-.102.025.228-1.371a5.968 5.968 0 0 1 1.854-.329c1.371 0 2.083.635 2.083 1.803.029.4.004.802-.076 1.194l-.33 2.185-.05.38-.05.306-.026.203v.177-.001zm-21.82-4.8c.4.002.8.036 1.194.101l.228-1.422c-.457-.051-1.067-.127-1.422-.127-1.778 0-2.362.965-2.362 2.082 0 .737.329 1.27 1.194 1.677.635.304.736.355.736.635 0 .38-.329.61-.94.61-.493 0-.983-.087-1.447-.255l-.18 1.397.025.026.305.05c.135.033.27.058.407.076.38.026.711.051.914.051 1.778 0 2.515-.685 2.515-2.033 0-.837-.406-1.345-1.194-1.701-.686-.305-.762-.355-.762-.635s.305-.534.787-.534l.002.001z" fill="#1B3771"/>
        <path d="m35.081 11.926-.28 1.626a3.05 3.05 0 0 0-1.422-.406c-1.194 0-2.033 1.168-2.033 2.819 0 1.143.559 1.829 1.499 1.829a3.119 3.119 0 0 0 1.345-.38l-.279 1.7a5.291 5.291 0 0 1-1.397.23c-1.727 0-2.794-1.245-2.794-3.252 0-2.667 1.473-4.547 3.581-4.547.248-.004.495.022.736.076l.636.153c.203.076.254.102.407.152h.001zm-5.13 1.118h-.153c-.533 0-.837.254-1.32.99l.151-.94h-1.448l-.99 6.097h1.6c.585-3.734.737-4.37 1.5-4.37h.1c.118-.61.323-1.2.61-1.752l-.05-.025zm-9.196 6.07a3.297 3.297 0 0 1-1.143.204c-.813 0-1.27-.457-1.27-1.346.006-.178.023-.357.05-.533l.103-.61.076-.482.686-4.166h1.575l-.179.914h.813l-.204 1.499h-.812l-.431 2.541a.954.954 0 0 0-.026.254c0 .305.153.432.534.432.145.013.292-.004.431-.05l-.203 1.345v-.002zm-6.121-4.09c0 .763.355 1.296 1.193 1.703.66.305.762.406.762.66 0 .381-.28.559-.914.559a4.744 4.744 0 0 1-1.423-.229l-.228 1.397.076.026.28.05c.14.036.286.053.431.051.287.039.575.056.864.051 1.676 0 2.464-.635 2.464-2.033 0-.838-.329-1.32-1.118-1.702-.685-.303-.763-.38-.763-.659 0-.329.28-.482.788-.482.382.003.764.029 1.143.076l.228-1.397a9.186 9.186 0 0 0-1.397-.127c-1.778 0-2.413.94-2.387 2.057zm32.615 4.167H45.75l.077-.585a1.903 1.903 0 0 1-1.474.66c-1.169 0-1.93-.99-1.93-2.514 0-2.032 1.193-3.76 2.59-3.76a1.825 1.825 0 0 1 1.525.838l.355-2.134h1.575L47.25 19.19v.002zm-2.337-1.423c.737 0 1.245-.863 1.245-2.057 0-.788-.28-1.194-.837-1.194-.712 0-1.245.837-1.245 2.032 0 .814.28 1.22.837 1.22zm-19.28 1.296a5.208 5.208 0 0 1-1.651.254c-1.778 0-2.693-.94-2.693-2.744 0-2.082 1.169-3.632 2.77-3.632 1.32 0 2.158.864 2.158 2.21a6.141 6.141 0 0 1-.204 1.525h-3.149a.496.496 0 0 0-.025.18c0 .71.483 1.066 1.397 1.066.573.01 1.14-.12 1.651-.381l-.254 1.524v-.002zm-.89-3.633v-.304a.702.702 0 0 0-.761-.788c-.508 0-.864.381-1.017 1.092h1.779zm-16.18 3.76H6.989l.915-5.766-2.058 5.766H4.753l-.127-5.715-.965 5.715H2.187l1.247-7.493H5.72l.075 4.648 1.525-4.648h2.49L8.564 19.19h-.002zm3.938-2.718c-.152 0-.229-.025-.356-.025-.889 0-1.345.329-1.345.94a.536.536 0 0 0 .559.609c.66 0 1.117-.61 1.143-1.525H12.5zm1.168 2.718h-1.32l.024-.635a1.98 1.98 0 0 1-1.676.737c-.864 0-1.448-.66-1.448-1.651 0-1.499 1.016-2.362 2.794-2.362.18 0 .406.025.66.05.036-.123.053-.252.051-.38 0-.407-.28-.56-1.017-.56a5.238 5.238 0 0 0-1.32.153l-.229.076-.152.026.228-1.372a6.39 6.39 0 0 1 1.905-.305c1.372 0 2.109.61 2.109 1.778a7.68 7.68 0 0 1-.127 1.22l-.356 2.159-.05.38-.026.305-.026.23-.025.151h.001zm23.979-2.718c-.18 0-.254-.025-.356-.025-.914 0-1.372.329-1.372.94a.552.552 0 0 0 .585.609c.635 0 1.117-.61 1.143-1.525zm1.168 2.718h-1.32l.024-.635a1.979 1.979 0 0 1-1.676.737c-.864 0-1.448-.66-1.448-1.651 0-1.499 1.016-2.362 2.794-2.362.18 0 .407.025.635.05.041-.123.067-.251.077-.38 0-.407-.28-.56-1.017-.56a5.447 5.447 0 0 0-1.345.153l-.203.076-.153.026.229-1.372a6.389 6.389 0 0 1 1.905-.305c1.372 0 2.083.61 2.083 1.778.003.41-.04.82-.127 1.22l-.329 2.159-.05.38-.051.305-.026.23v.151h-.002zm4.267-6.147h-.152c-.533 0-.837.254-1.321.99l.152-.94h-1.448l-.965 6.097h1.574c.584-3.734.737-4.37 1.499-4.37h.101c.117-.61.322-1.2.61-1.752l-.051-.025h.001z" fill="#fff"/>
    </g>
    <defs>
        <clipPath id="031hat04qa">
            <path fill="#fff" transform="translate(.766 .525)" d="M0 0h49.149v29.592H0z"/>
        </clipPath>
    </defs>
</svg>
