<svg width="25" height="25" viewBox="0 0 25 25" fill="none" xmlns="http://www.w3.org/2000/svg">
    <mask id="o189nmaaya" style="mask-type:luminance" maskUnits="userSpaceOnUse" x="0" y="0" width="25" height="21">
        <path fill-rule="evenodd" clip-rule="evenodd" d="M.648.908h23.806V20.07H.648V.908z" fill="#fff"/>
    </mask>
    <g mask="url(#o189nmaaya)">
        <path fill-rule="evenodd" clip-rule="evenodd" d="M8.649 20.07c-1.207-.003-2.149-.778-2.356-1.927-.17-.944.385-1.94 1.315-2.356.408-.183.441-.252.341-.673-.96-4.05-1.454-6.57-2.41-10.62-.054-.233-.176-.326-.408-.335-1.065-.044-2.13-.096-3.196-.146-.457-.022-.824-.387-.822-.817.002-.404.389-.766.845-.758 1.403.026 2.805.06 4.208.101.414.012.695.288.8.741l.642 2.804c.199.87-.067.21.132 1.081.088.39.168.456.57.456h15.532c.066 0 .131-.002.197 0 .368.015.502.216.36.554-.517 1.223-1.036 2.444-1.556 3.665-.682 1.606-1.367 3.211-2.05 4.817-.175.413-.183.42-.64.42H8.855c-.107 0-.214-.003-.32.008-.365.04-.642.313-.644.628-.003.34.289.64.66.674.097.009.196.004.295.004h12.873c.428.001.701.231.792.659.09.42-.082.8-.458.952a1.18 1.18 0 0 1-.432.065c-2.183.004-4.365.003-6.548.003-2.141 0-4.283.003-6.424 0z" fill="#333"/>
    </g>
    <path fill-rule="evenodd" clip-rule="evenodd" d="M9.995 21.288a1.728 1.728 0 1 1-.02 3.457 1.724 1.724 0 0 1-1.713-1.728 1.718 1.718 0 0 1 1.733-1.73M20.75 23.021a1.719 1.719 0 0 1-1.74 1.724 1.73 1.73 0 0 1 .013-3.457c.967 0 1.73.766 1.727 1.733" fill="#333"/>
</svg>
