<svg width="48" height="32" viewBox="0 0 48 32" fill="none" xmlns="http://www.w3.org/2000/svg">
<g clip-path="url(#clip0_440_64)">
<path d="M44.7863 0.860352H2.80833C2.09339 0.860351 1.4077 1.14422 0.901968 1.64958C0.39624 2.15493 0.111858 2.84041 0.111328 3.55535V28.6724C0.111328 29.3876 0.395476 30.0736 0.901261 30.5794C1.1517 30.8299 1.44902 31.0285 1.77623 31.1641C2.10345 31.2996 2.45415 31.3694 2.80833 31.3694H44.7863C45.5016 31.3694 46.1876 31.0852 46.6934 30.5794C47.1992 30.0736 47.4833 29.3876 47.4833 28.6724V3.55635C47.4831 2.84124 47.1988 2.1555 46.693 1.64993C46.1873 1.14436 45.5014 0.860352 44.7863 0.860352Z" fill="#737373"/>
<path fill-rule="evenodd" clip-rule="evenodd" d="M40.3991 18.6267L41.6477 11.5466C41.6669 11.4367 41.7737 11.3558 41.8979 11.3555H43.3036C43.4588 11.3555 43.578 11.4795 43.5535 11.6167L42.3222 18.5693C42.29 18.7528 42.113 18.8876 41.9044 18.8876H40.649C40.4938 18.8876 40.3746 18.764 40.3991 18.6267ZM30.8366 11.3558H27.7936C27.5859 11.3558 27.4088 11.4907 27.3763 11.6738L26.1458 18.6267C26.1213 18.764 26.2405 18.8876 26.3959 18.8876H27.9572C28.1024 18.8876 28.2265 18.7933 28.2492 18.6649L28.5983 16.694C28.6304 16.5104 28.8079 16.3757 29.0156 16.3757H29.9783C31.9829 16.3757 33.1392 15.5113 33.4417 13.7986C33.5782 13.0493 33.447 12.4605 33.0534 12.0481C32.6213 11.5955 31.8548 11.3558 30.8366 11.3558ZM31.1876 13.8953C31.0216 14.8683 30.1875 14.8683 29.3804 14.8683H28.9218L29.2444 13.0511C29.2635 12.9414 29.3693 12.8605 29.4943 12.8605H29.7047C30.2537 12.8605 30.7725 12.8605 31.0402 13.1396C31.1999 13.3062 31.2485 13.5535 31.1876 13.8953ZM39.9303 13.8641H38.4744C38.3492 13.8641 38.243 13.945 38.2243 14.0549L38.1598 14.418L38.0575 14.2865C37.7421 13.8784 37.0393 13.7421 36.3373 13.7421C34.7271 13.7421 33.3525 14.8288 33.0847 16.3533C32.9459 17.1136 33.143 17.8407 33.627 18.3478C34.0718 18.814 34.7063 19.0083 35.4621 19.0083C36.7593 19.0083 37.4786 18.2649 37.4786 18.2649L37.4138 18.6258C37.3893 18.7638 37.5085 18.8874 37.6647 18.8874H38.9765C39.1843 18.8874 39.3613 18.7526 39.3938 18.5691L40.1817 14.125C40.2058 13.9883 40.0866 13.8641 39.9303 13.8641ZM37.8996 16.3913C37.7598 17.1331 37.0984 17.631 36.2557 17.631C35.8335 17.631 35.4946 17.5101 35.2774 17.2809C35.0621 17.0534 34.9812 16.7294 35.0489 16.3687C35.1809 15.6332 35.8518 15.1191 36.6815 15.1191C37.0953 15.1191 37.4315 15.2414 37.6532 15.4726C37.8759 15.7062 37.9641 16.032 37.8996 16.3913Z" fill="white"/>
<path fill-rule="evenodd" clip-rule="evenodd" d="M9.13724 11.3564H6.0948C5.8866 11.3564 5.70954 11.4913 5.67707 11.6744L4.44655 18.6273C4.42209 18.7646 4.54131 18.8882 4.69747 18.8882H6.14996C6.35816 18.8882 6.53523 18.7534 6.56769 18.5699L6.89958 16.6946C6.93159 16.511 7.10909 16.3763 7.31686 16.3763H8.27999C10.2842 16.3763 11.4407 15.5119 11.743 13.7992C11.879 13.0499 11.7487 12.4611 11.3549 12.0487C10.9226 11.5961 10.1555 11.3564 9.13724 11.3564ZM9.48825 13.8959C9.32191 14.8689 8.48776 14.8689 7.68121 14.8689H7.2221L7.54418 13.0517C7.56331 12.942 7.67007 12.8611 7.79465 12.8611H8.00507C8.55448 12.8611 9.0728 12.8611 9.34064 13.1402C9.50019 13.3068 9.54919 13.5541 9.48825 13.8959ZM18.2318 13.8647H16.7749C16.6507 13.8647 16.5435 13.9456 16.5243 14.0555L16.4599 14.4186L16.358 14.2871C16.0426 13.879 15.3393 13.7427 14.6373 13.7427C13.0272 13.7427 11.6522 14.8294 11.3843 16.3539C11.2452 17.1142 11.443 17.8413 11.927 18.3485C12.3711 18.8147 13.0064 19.009 13.7622 19.009C15.0594 19.009 15.7789 18.2655 15.7789 18.2655L15.7138 18.6264C15.6893 18.7644 15.8085 18.888 15.9637 18.888H17.2762C17.4849 18.888 17.661 18.7532 17.6939 18.5697L18.4814 14.1256C18.5063 13.9889 18.3875 13.8647 18.2318 13.8647ZM16.2009 16.3919C16.0603 17.1337 15.3997 17.6316 14.5572 17.6316C14.1342 17.6316 13.7959 17.5107 13.5789 17.2816C13.3636 17.054 13.2816 16.73 13.3502 16.3693C13.4815 15.6338 14.1533 15.1197 14.983 15.1197C15.3966 15.1197 15.733 15.2421 15.9545 15.4732C16.1764 15.7068 16.2645 16.0326 16.2009 16.3919ZM24.5272 13.8645H25.9914C26.1964 13.8645 26.316 14.0695 26.1995 14.2194L21.33 20.4835C21.2512 20.585 21.1213 20.6454 20.9825 20.6454H19.5202C19.3143 20.6454 19.1941 20.4388 19.3133 20.2885L20.8295 18.3811L19.2169 14.1634C19.1611 14.0168 19.2826 13.8645 19.4576 13.8645H20.8962C21.0832 13.8645 21.2481 13.9739 21.302 14.1333L22.1578 16.6807L24.1772 14.0298C24.2563 13.9264 24.3876 13.8645 24.5272 13.8645Z" fill="white"/>
</g>
<defs>
<clipPath id="clip0_440_64">
<rect width="48" height="32" fill="white"/>
</clipPath>
</defs>
</svg>
