<svg width="43" height="36" viewBox="0 0 43 36" fill="none" xmlns="http://www.w3.org/2000/svg">
    <path fill-rule="evenodd" clip-rule="evenodd" d="m10.222 26.631-.779 3.692h.855l.778-3.692h-.854zm1.217 0-.137.627h1.143l-.647 3.065h.854l.647-3.065h1.122l.167-.627H11.44zm6.327 4.685-.762 3.687h2.508l.12-.61h-1.636l.649-3.077h-.879zm-2.848-4.685-.778 3.692h2.713l.137-.649h-1.857l.2-.943h1.627l.128-.573h-1.635l.191-.911h1.861l.152-.616h-2.74zm-9.274 3.692h.794l.518-2.593.934 2.593h1.027l.778-3.692h-.767l-.571 2.639-.848-2.639H6.422l-.778 3.692zm21.522 0h.84l1.61-2.823.327 2.184H28.82l-.391.639h2.448L30.3 26.63h-.991l-2.142 3.692zM3.447 26.63h-.854l-.508 2.406c-.43 1.85 2.907 1.714 3.239.28l.564-2.686H5.05l-.503 2.349c-.142.915-1.904 1.295-1.556-.153l.457-2.196zm14.59 0h1.526c.678 0 1.181.126 1.446.487.513.702.073 2.115-.57 2.655-.48.402-1.113.55-1.67.55h-1.495l.763-3.692zM3.307 31.311h-1.74l-.762 3.692h.839l.65-3.088s.611-.06.908.075c.178.082.255.433.072.682-.284.385-.448.377-1.105.336l.046.504s.174.089.353.09c1.933.013 2.168-2.291.739-2.291zm27.1 0 .573 3.691h.956l2.117-3.692h-.852l-1.543 2.831-.425-2.83h-.827z" fill="#737373"/>
    <path fill-rule="evenodd" clip-rule="evenodd" d="M26.788 35.003h.838l.66-3.073h.641c.862 0 .533 1.06-.492 1.06h-.198l.625 2.013h.95l-.564-1.589c1.338-.281 1.555-2.103-.031-2.103H27.55l-.762 3.692zM1.685 30.699l-.03.24h39.929l.034-.24H1.685zm32.835-4.068-.778 3.691h2.714l.136-.648h-1.857l.2-.944h1.628l.127-.572h-1.635l.191-.911h1.861l.153-.616h-2.74zm-3.47 0-.138.626h1.143l-.647 3.065h.855l.647-3.065h1.122l.167-.626h-3.15zm-5.585 0-.137.626h1.142l-.646 3.065h.854l.647-3.065h1.121l.168-.626h-3.149zM6.63 31.246c1.078 0 1.851.76 1.453 2.233-.345 1.275-1.622 1.63-2.276 1.617-.727-.015-2.074-.548-1.543-2.182.5-1.54 1.769-1.668 2.366-1.668z" fill="#737373"/>
    <path fill-rule="evenodd" clip-rule="evenodd" d="M6.6 31.876c-.555-.042-1.139.162-1.487 1.1-.32.862.092 1.447.695 1.481.373.022 1.158-.095 1.452-1.145.293-1.05-.26-1.405-.66-1.436z" fill="#F2F2F2"/>
    <path fill-rule="evenodd" clip-rule="evenodd" d="m23.815 31.945.137-.634h-1.098c-1.55 0-1.924.96-1.222 1.663l.935.808c.197.216.022.606-.306.587h-1.367l-.137.634h1.456c1.5 0 1.552-1.151 1.097-1.586l-.99-.946c-.161-.129-.057-.525.292-.525h1.203zm-12.849 0 .137-.634h-1.098c-1.549 0-1.924.96-1.222 1.663l.936.808c.196.216.022.606-.306.587H8.046l-.138.634h1.456c1.5 0 1.552-1.151 1.097-1.586l-.99-.946c-.16-.129-.057-.525.292-.525h1.203zm14.08-4.675.137-.635h-1.098c-1.55 0-1.924.96-1.222 1.663l.935.808c.197.216.022.606-.306.586h-1.366l-.138.635h1.456c1.5 0 1.552-1.152 1.097-1.587l-.99-.945c-.161-.13-.056-.525.292-.525h1.203zm14.764 0 .137-.635h-1.099c-1.548 0-1.924.96-1.221 1.663l.935.808c.197.216.022.606-.306.586h-1.367l-.137.635h1.456c1.5 0 1.552-1.152 1.097-1.587l-.99-.945c-.161-.13-.057-.525.292-.525h1.203zm-28.44 4.042-.137.626h1.143l-.647 3.066h.855l.646-3.066h1.122l.168-.626h-3.15zm1.705 3.69h.839l1.61-2.822.328 2.184h-1.123l-.391.638h2.448l-.578-3.692h-.992l-2.141 3.692zm11.388-3.69-.777 3.691h2.712l.138-.648h-1.857l.199-.944h1.628l.127-.573h-1.635l.192-.911h1.86l.153-.616h-2.74zm14.275 0-.778 3.691h2.713l.138-.648h-1.858l.2-.944h1.628l.127-.573h-1.635l.191-.911h1.861l.152-.616h-2.739zm2.418 3.085-.016.073h.205l-.113.534h.082l.114-.534h.205l.015-.073h-.492zm1.025.607h.08l.128-.607h-.116l-.283.515-.064-.515h-.117l-.13.607h.08l.107-.515.064.515h.08l.282-.515-.111.515zm-3.84-3.63c-1.287-.375-2.93-.016-3.357 1.738-.126.515-.132 1.937 1.691 1.967.232 0 .734.015.955-.095l.178-.662c-.243.11-.61.135-.945.135-.415 0-.72-.152-.892-.396-.171-.245-.303-.959.343-1.76.35-.435 1.04-.543 1.927-.305l.1-.622zm-4.085-.063-.778 3.692h.854l.778-3.692h-.854zM26.502 6.172c-2.69-.35-17.213-.224-19.348-.203L3.3 23.848a867.162 867.162 0 0 1 16.99-8.318c7.428-3.543 12.537-4.451 13.597-4.503.713-.034.308-.345-.03-.42-4.149-.915-14.21 3.75-14.21 3.75l-2.198-6.67 14.323.014c-.79-1.17-2.367-1.15-5.271-1.529z" fill="#737373"/>
    <path fill-rule="evenodd" clip-rule="evenodd" d="M9.333.83c6.55 1.438 13.099 2.876 19.648 4.317 3.15.694 3.552 1.773 3.552 1.773s3.446-.417 4.078.783c.81 1.536-1.262 4.456-1.262 4.456L5.56 23.847h30.936L41.57.83H9.333z" fill="#737373"/>
    <path fill-rule="evenodd" clip-rule="evenodd" d="m18.824 27.277-.521 2.43h.595c.311 0 .71-.1 1.025-.39.443-.409.622-1.175.466-1.6-.135-.366-.5-.44-.787-.44h-.778z" fill="#F2F2F2"/>
</svg>
