<svg width="16" height="18" viewBox="0 0 16 18" fill="none" xmlns="http://www.w3.org/2000/svg">
    <path fill-rule="evenodd" clip-rule="evenodd" d="M14.992 7.667a7.306 7.306 0 0 0-1.95-3.794 7.315 7.315 0 0 0-3.715-2.1c-.224-.05-.448-.086-.686-.125L8.358 1.6l.156-.152c.153-.15.298-.291.443-.435.091-.091.137-.182.137-.272 0-.072-.03-.139-.09-.199-.13-.129-.31-.11-.471.05L7.476 1.641c-.08.08-.12.16-.12.242 0 .082.04.163.118.241l.193.193.885.881c.215.213.374.146.47.052a.277.277 0 0 0 .088-.199.392.392 0 0 0-.132-.273c-.132-.132-.267-.263-.399-.39l-.157-.154.004-.011.223.037c.175.03.356.06.531.1a6.91 6.91 0 0 1 3.94 2.531 6.843 6.843 0 0 1 1.366 4.48c-.113 2.25-1.146 4.061-3.07 5.38-.439.3-.93.542-1.5.74-.25.086-.344.225-.281.415.026.08.073.136.137.167.04.02.085.03.137.03a.657.657 0 0 0 .215-.043l.054-.02c.065-.022.133-.045.198-.072 1.65-.655 2.965-1.801 3.805-3.313.84-1.51 1.12-3.236.811-4.988" fill="#737373"/>
    <path d="M14.992 7.667a7.306 7.306 0 0 0-1.95-3.794 7.315 7.315 0 0 0-3.715-2.1c-.224-.05-.448-.086-.686-.125L8.358 1.6l.156-.152c.153-.15.298-.291.443-.435.091-.091.137-.182.137-.272 0-.072-.03-.139-.09-.199-.13-.129-.31-.11-.471.05L7.476 1.641c-.08.08-.12.16-.12.242 0 .082.04.163.118.241l.193.193.885.881c.215.213.374.146.47.052a.277.277 0 0 0 .088-.199.392.392 0 0 0-.132-.273c-.132-.132-.267-.263-.399-.39l-.157-.154.004-.011.223.037c.175.03.356.06.531.1a6.91 6.91 0 0 1 3.94 2.531 6.843 6.843 0 0 1 1.366 4.48c-.113 2.25-1.146 4.061-3.07 5.38-.439.3-.93.542-1.5.74-.25.086-.344.225-.281.415.026.08.073.136.137.167.04.02.085.03.137.03a.657.657 0 0 0 .215-.043l.054-.02c.065-.022.133-.045.198-.072 1.65-.655 2.965-1.801 3.805-3.313.84-1.51 1.12-3.236.811-4.988" stroke="#737373" stroke-width=".3"/>
    <path d="M7.7 4.595v1.24M7.7 12.036v1.24M5.905 12.036h2.694c.826 0 1.496-.695 1.496-1.55 0-.857-.67-1.55-1.496-1.55H6.803c-.827 0-1.497-.694-1.497-1.55 0-.856.67-1.55 1.497-1.55h2.694" stroke="#737373" stroke-linecap="round" stroke-linejoin="round"/>
    <path fill-rule="evenodd" clip-rule="evenodd" d="M6.774 14.856c-.166-.165-.334-.182-.47-.046a.276.276 0 0 0-.086.198c0 .092.046.187.133.274.132.132.268.264.4.392l.156.153-.007.02a22.283 22.283 0 0 0-.324-.064 6.887 6.887 0 0 1-4.6-2.94A6.834 6.834 0 0 1 .874 8.226c.249-2.095 1.293-3.764 3.103-4.962a6.599 6.599 0 0 1 1.509-.725c.162-.056.242-.167.23-.32a.277.277 0 0 0-.248-.268.504.504 0 0 0-.226.036A7.454 7.454 0 0 0 1.247 5.25a7.462 7.462 0 0 0-.913 5.079 7.413 7.413 0 0 0 5.73 5.967c.209.047.42.08.643.116l.263.043-.165.162c-.16.158-.313.307-.466.46a.37.37 0 0 0-.122.26c0 .074.03.143.087.2.06.06.13.09.2.09.086 0 .175-.043.259-.126.415-.409.775-.767 1.103-1.097.142-.143.14-.315-.003-.46-.328-.33-.684-.685-1.089-1.088" fill="#737373"/>
    <path d="M6.774 14.856c-.166-.165-.334-.182-.47-.046a.276.276 0 0 0-.086.198c0 .092.046.187.133.274.132.132.268.264.4.392l.156.153-.007.02a22.283 22.283 0 0 0-.324-.064 6.887 6.887 0 0 1-4.6-2.94A6.834 6.834 0 0 1 .874 8.226c.249-2.095 1.293-3.764 3.103-4.962a6.599 6.599 0 0 1 1.509-.725c.162-.056.242-.167.23-.32a.277.277 0 0 0-.248-.268.504.504 0 0 0-.226.036A7.454 7.454 0 0 0 1.247 5.25a7.462 7.462 0 0 0-.913 5.079 7.413 7.413 0 0 0 5.73 5.967c.209.047.42.08.643.116l.263.043-.165.162c-.16.158-.313.307-.466.46a.37.37 0 0 0-.122.26c0 .074.03.143.087.2.06.06.13.09.2.09.086 0 .175-.043.259-.126.415-.409.775-.767 1.103-1.097.142-.143.14-.315-.003-.46-.328-.33-.684-.685-1.089-1.088" stroke="#737373" stroke-width=".3"/>
</svg>
