<svg width="43" height="43" viewBox="0 0 43 43" fill="none" xmlns="http://www.w3.org/2000/svg">
    <g clip-path="url(#x3yw2bia1a)">
        <circle cx="21.584" cy="21.857" r="19.062" stroke="#737373" stroke-width="2.786"/>
        <path d="M15.74 19.76a2.74 2.74 0 1 0 0-5.479 2.74 2.74 0 0 0 0 5.48zM27.427 19.76a2.74 2.74 0 1 0 0-5.479 2.74 2.74 0 0 0 0 5.48z" fill="#737373"/>
        <path d="M25.139 27.53a.87.87 0 0 1 .517-.43.815.815 0 0 1 .652.083l-1.17.347zm0 0a4.203 4.203 0 0 1-1.49 1.627 3.88 3.88 0 0 1-2.061.597 3.88 3.88 0 0 1-2.062-.598 4.204 4.204 0 0 1-1.49-1.626h7.103zm1.24-.466a.955.955 0 0 0-.763-.097 1.009 1.009 0 0 0-.6.498 4.064 4.064 0 0 1-1.441 1.573 3.74 3.74 0 0 1-1.987.576 3.74 3.74 0 0 1-1.988-.576 4.064 4.064 0 0 1-1.44-1.572v-.002a1.011 1.011 0 0 0-.608-.496.958.958 0 0 0-.766.105 1.05 1.05 0 0 0-.465.64c-.069.268-.034.554.096.796a6.043 6.043 0 0 0 2.167 2.358c.91.565 1.948.858 3.004.848a5.587 5.587 0 0 0 3.007-.856 6.046 6.046 0 0 0 2.163-2.37c.128-.241.16-.526.09-.792a1.046 1.046 0 0 0-.468-.633z" fill="#737373" stroke="#737373" stroke-width=".279"/>
    </g>
    <defs>
        <clipPath id="x3yw2bia1a">
            <path fill="#fff" transform="translate(.691 .965)" d="M0 0h41.789v41.789H0z"/>
        </clipPath>
    </defs>
</svg>
