<svg width="23" height="22" viewBox="0 0 23 22" fill="none" xmlns="http://www.w3.org/2000/svg">
    <path fill-rule="evenodd" clip-rule="evenodd" d="M14.894 14.248a7.205 7.205 0 0 1-5.114 2.138h-.019c-3.976 0-7.217-3.24-7.228-7.231C2.522 5.172 5.764 1.92 9.76 1.906h.026c1.913 0 3.718.75 5.085 2.114a7.211 7.211 0 0 1 2.138 5.115 7.17 7.17 0 0 1-2.116 5.114m3.25 2.185-1.185-1.185a6.766 6.766 0 0 1-.142-.148l-.056-.059-.254-.267.222-.295c2.865-3.79 2.248-9.11-1.406-12.114A8.725 8.725 0 0 0 9.333.394 8.71 8.71 0 0 0 3.57 2.957a8.8 8.8 0 0 0-2.552 5.8 8.685 8.685 0 0 0 2 5.975 8.772 8.772 0 0 0 5.714 3.112c2.263.272 4.527-.346 6.375-1.74l.293-.222.267.253c.02.02.04.037.06.055.044.042.087.082.129.124l2.098 2.1L19.5 19.96l.454.457c.35.353.712.718 1.075 1.066.209.2.493.275.76.2a.73.73 0 0 0 .516-.532c.08-.306-.002-.56-.269-.827-1.3-1.294-2.618-2.614-3.893-3.89" fill="#333"/>
    <path d="M9.78 16.386v.2h.001v-.2zm-.019 0v.2h.002l-.002-.2zM2.533 9.155l.2-.001h-.2zM9.76 1.906v.2h.001l-.001-.2zm5.112 2.114-.142.141.142-.141zm2.137 5.115h.2-.2zm-.05 6.114.14-.141-.14.141zm-.143-.148.146-.137-.146.137zm-.056-.059.145-.138-.145.138zm-.254-.267-.16-.12-.102.135.117.123.145-.138zm.222-.295.16.121-.16-.12zM15.323 2.366l.127-.155-.127.155zM9.333.394l-.01-.2.01.2zM3.57 2.957l-.142-.141.142.14zm-2.552 5.8-.2-.008.2.009zm2 5.975-.153.128.154-.128zm5.714 3.112-.024.198.024-.198zm6.375-1.74.12.16-.12-.16zm.293-.222.138-.145-.123-.116-.135.102.12.16zm.267.253.138-.145-.138.145zm.06.055.136-.146-.137.146zm.129.124.14-.142-.14.142zm2.098 2.1-.141.14.14-.14zM19.5 19.96l-.142.141.142-.141zm.454.457-.142.14.142-.14zm1.075 1.066.138-.144-.138.144zm.76.2-.055-.193.055.193zm.516-.532-.193-.05.193.05zm-.269-.827-.141.142.141-.142zm-7.285-6.217a7.005 7.005 0 0 1-4.972 2.079l.001.4a7.405 7.405 0 0 0 5.255-2.196l-.284-.283zM9.78 16.186h-.02l.003.4h.017v-.4zm-.019 0c-3.866 0-7.017-3.15-7.028-7.032l-.4.001c.011 4.101 3.34 7.432 7.428 7.431v-.4zM2.733 9.154C2.722 5.282 5.875 2.12 9.762 2.106l-.002-.4c-4.106.015-7.439 3.355-7.427 7.45l.4-.002zm7.029-7.048h.025v-.4H9.76l.002.4zm.025 0c1.86 0 3.614.729 4.944 2.055l.283-.283a7.358 7.358 0 0 0-5.227-2.172v.4zm4.944 2.055a7.011 7.011 0 0 1 2.079 4.975l.4-.001a7.411 7.411 0 0 0-2.196-5.257l-.283.283zm2.079 4.975a6.969 6.969 0 0 1-2.058 4.971l.284.283a7.369 7.369 0 0 0 2.174-5.255h-.4zm1.475 7.157-1.184-1.185-.283.282 1.184 1.186.283-.283zm-1.184-1.185a6.362 6.362 0 0 1-.138-.144l-.291.274c.046.05.095.101.146.153l.283-.283zm-.138-.144-.057-.06-.29.276.056.059.29-.275zm-.057-.06-.255-.267-.29.276.256.267.29-.276zm-.24-.008.223-.295-.32-.241-.222.294.32.242zm.223-.295c2.929-3.875 2.298-9.318-1.439-12.39l-.254.31c3.57 2.934 4.174 8.134 1.374 11.839l.319.241zM15.45 2.211A8.925 8.925 0 0 0 9.322.194l.02.4a8.525 8.525 0 0 1 5.854 1.926l.254-.309zM9.322.194A8.91 8.91 0 0 0 3.43 2.816l.284.281A8.51 8.51 0 0 1 9.343.594l-.02-.4zM3.43 2.816A9 9 0 0 0 .82 8.749l.4.018a8.6 8.6 0 0 1 2.494-5.67l-.284-.281zM.82 8.749a8.885 8.885 0 0 0 2.047 6.11l.307-.255A8.485 8.485 0 0 1 1.22 8.767l-.4-.018zm2.047 6.11a8.972 8.972 0 0 0 5.843 3.184l.048-.398a8.572 8.572 0 0 1-5.584-3.041l-.307.256zm5.843 3.184c2.316.278 4.631-.355 6.52-1.78l-.242-.319c-1.806 1.364-4.019 1.967-6.23 1.701l-.048.398zm6.52-1.78.293-.221-.241-.32-.294.222.241.32zm.035-.235.267.252.274-.29-.266-.253-.275.29zm.267.252.06.057.273-.293-.058-.054-.275.29zm.06.057c.045.042.086.08.124.118l.283-.283a5.544 5.544 0 0 0-.134-.128l-.273.293zm.124.118 2.099 2.1.282-.283-2.098-2.1-.283.283zm2.099 2.1 1.545 1.546.283-.283-1.546-1.546-.282.283zM19.36 20.1l.453.457.284-.282a150.64 150.64 0 0 0-.455-.458l-.282.283zm.453.457c.35.352.713.72 1.079 1.07l.276-.289c-.36-.346-.72-.71-1.07-1.063l-.285.282zm1.079 1.07a.983.983 0 0 0 .952.247l-.109-.385a.584.584 0 0 1-.567-.15l-.276.288zm.952.247a.93.93 0 0 0 .656-.673l-.387-.101a.53.53 0 0 1-.378.39l.109.384zm.656-.673a.94.94 0 0 0-.008-.541 1.214 1.214 0 0 0-.314-.478l-.282.283a.82.82 0 0 1 .216.319c.03.093.033.194.001.316l.387.101zm-.322-1.02c-1.3-1.294-2.618-2.613-3.893-3.889l-.282.283c1.274 1.276 2.593 2.595 3.893 3.89l.282-.283z" fill="#333"/>
</svg>
