<svg width="32" height="37" viewBox="0 0 32 37" fill="none" xmlns="http://www.w3.org/2000/svg">
    <path d="m1.433 4.1-.216.116v.245l.001 17.155c0 4.15 1.499 6.89 4.119 9.058 2.525 2.09 6.097 3.652 10.297 5.488l.287.125.164.072.164-.072.39-.17c4.14-1.815 7.673-3.364 10.18-5.435 2.624-2.167 4.13-4.906 4.13-9.066V4.215l-.215-.115C26.178 1.668 20.678.697 15.419.814 10.16.932 5.106 2.14 1.433 4.101z" fill="#fff" stroke="#B1B1B1" stroke-width=".816"/>
    <path d="M29.208 4.827v16.788c0 6.724-4.099 8.822-13.126 12.836C7.03 30.428 2.949 28.339 2.949 21.615v-9.816c7.88-7.284 17.84-7.766 26.26-6.972z" fill="#737373"/>
    <path d="M25.7 21.143c.046 1.826-2.342 1.785-3.912.381v2.338c2.789 1.67 6.308.63 6.408-2.6.131-4-4.167-3.62-4.114-5.686.047-1.577 2.357-1.592 3.735-.17v-2.207c-2.195-1.707-6.154-.714-6.14 2.477.011 3.673 3.977 3.3 4.023 5.467zm-13.92 2.482V12.631H9.268v9.553c-.4.28-2.511 1.018-2.511-1.477v-8.076H4.238v7.967c0 5.816 6.177 3.967 7.542 3.027z" fill="#fff"/>
    <path d="M21.678 15.671v.003l.001-.002-.001-.001zm-6.093 8.792c1.88.567 5.523-.202 5.523-6.097 0-7.565-6.217-6.282-8.042-5.094v16.526h2.519v-5.335zm0-9.872c.648-.327 2.958-.986 2.958 3.829 0 5.272-2.803 4.022-2.958 3.961v-7.79z" fill="#fff"/>
</svg>
