<svg width="71" height="24" viewBox="0 0 71 24" fill="none" xmlns="http://www.w3.org/2000/svg">
    <path fill-rule="evenodd" clip-rule="evenodd" d="M17.864 23.154h-6.082L7.223 5.755c-.217-.8-.676-1.508-1.352-1.841C4.182 3.076 2.323 2.409.295 2.072v-.67h9.797a2.553 2.553 0 0 1 2.536 2.175l2.366 12.55 6.079-14.725h5.912l-9.12 21.752zm12.5 0h-5.743l4.73-21.752h5.743l-4.73 21.752zM42.528 7.428c.17-1.172 1.183-1.841 2.367-1.841 1.859-.169 3.884.168 5.574 1.003l1.014-4.683A14.54 14.54 0 0 0 46.246.9c-5.575 0-9.632 3.013-9.632 7.195 0 3.181 2.874 4.851 4.902 5.857 2.194 1.004 3.04 1.674 2.87 2.677 0 1.505-1.69 2.175-3.377 2.175-2.028 0-4.057-.502-5.913-1.34l-1.014 4.686c2.028.835 4.223 1.172 6.25 1.172 6.252.165 10.136-2.845 10.136-7.363 0-5.69-7.94-6.023-7.94-8.531zM70.57 23.154 66.008 1.402H61.11c-1.014 0-2.028.67-2.366 1.674l-8.445 20.078h5.913l1.18-3.178h7.265l.676 3.178h5.237zM61.957 7.258l1.687 8.198h-4.73l3.042-8.198z" fill="#737373"/>
</svg>
